<?xml version="1.0" encoding="UTF-8"?>
<!DOCTYPE svg PUBLIC "-//W3C//DTD SVG 1.1//EN" "http://www.w3.org/Graphics/SVG/1.1/DTD/svg11.dtd">
<!-- Creator: CorelDRAW 2026 -->
<svg xmlns="http://www.w3.org/2000/svg" xml:space="preserve" width="1024px" height="1024px" version="1.1" style="shape-rendering:geometricPrecision; text-rendering:geometricPrecision; image-rendering:optimizeQuality; fill-rule:evenodd; clip-rule:evenodd"
viewBox="0 0 1024 1024"
 xmlns:xlink="http://www.w3.org/1999/xlink"
 xmlns:xodm="http://www.corel.com/coreldraw/odm/2003">
 <defs>
  <style type="text/css">
   <![CDATA[
    .fil0 {fill:white}
   ]]>
  </style>
 </defs>
 <g id="Katman_x0020_1">
  <metadata id="CorelCorpID_0Corel-Layer"/>
  <g id="_2369144519328">
   <g>
    <polygon class="fil0" points="568.81,601.18 599.19,627.6 609.76,634.21 632.22,652.7 649.4,664.59 656,671.2 667.89,679.12 703.56,708.19 718.1,717.44 679.78,660.63 671.86,651.38 648.08,615.71 617.69,574.75 613.73,576.08 605.8,576.08 615.05,589.29 617.69,595.89 628.26,610.42 629.58,614.39 648.08,640.81 646.75,643.45 624.3,628.92 615.05,624.96 612.41,622.32 595.23,614.39 592.59,611.75 579.38,605.14 576.74,605.14 "/>
    <polygon class="fil0" points="646.75,643.45 648.08,642.13 649.4,643.45 648.08,644.77 "/>
    <polygon class="fil0" points="453.87,602.5 449.91,602.5 436.7,609.1 434.05,611.75 419.52,618.35 416.88,620.99 407.63,624.96 393.1,635.53 389.14,636.85 385.17,640.81 381.21,642.13 379.89,640.81 385.17,635.53 422.16,577.4 422.16,576.08 418.2,574.75 408.95,574.75 394.42,597.21 360.07,643.45 352.14,656.66 348.18,660.63 346.86,664.59 338.93,673.84 308.55,718.76 329.68,704.22 342.9,692.33 361.39,679.12 368,672.52 391.78,655.34 411.59,638.17 418.2,634.21 440.66,615.71 451.23,605.14 452.55,605.14 "/>
    <polygon class="fil0" points="515.96,519.27 513.32,745.18 510.68,742.54 508.04,712.15 482.94,564.18 467.08,574.75 513.32,897.11 560.88,568.15 "/>
    <polygon class="fil0" points="522.57,517.95 777.55,517.95 567.49,547.01 570.13,553.62 582.02,562.86 891.16,516.63 575.41,469.06 "/>
    <polygon class="fil0" points="505.39,517.95 471.05,515.3 255.7,513.98 457.83,483.6 445.94,469.06 132.84,516.63 453.87,566.83 "/>
    <polygon class="fil0" points="719.42,311.85 675.82,344.88 626.94,384.51 621.65,387.16 603.16,403.01 591.27,410.94 574.09,426.79 578.06,426.79 612.41,409.61 615.05,406.97 624.3,403.01 645.43,388.48 646.75,391.12 638.83,401.69 637.51,405.65 633.54,409.61 628.26,420.18 622.97,426.79 621.65,430.75 607.12,453.21 607.12,454.53 617.69,455.85 622.97,450.57 625.62,445.28 650.72,412.26 656,403.01 659.97,399.05 677.14,372.62 699.6,342.24 "/>
    <polygon class="fil0" points="645.43,388.48 646.75,387.16 648.08,388.48 646.75,389.8 "/>
    <polygon class="fil0" points="305.9,310.53 320.44,332.99 324.4,336.95 329.68,346.2 333.65,350.16 338.93,359.41 342.9,363.37 348.18,372.62 352.14,376.59 357.43,385.83 365.36,395.08 382.53,421.5 386.49,425.47 407.63,455.85 419.52,454.53 399.7,422.83 398.38,418.86 390.46,408.29 389.14,404.33 385.17,400.37 381.21,392.44 375.92,387.16 377.25,385.83 381.21,387.16 385.17,391.12 406.31,403.01 408.95,405.65 426.13,413.58 428.77,416.22 434.05,417.54 444.62,424.15 452.55,425.47 423.48,400.37 416.88,396.4 411.59,391.12 394.42,379.23 365.36,355.45 354.79,348.84 348.18,342.24 342.9,339.59 337.61,334.31 "/>
    <polygon class="fil0" points="513.32,126.89 465.76,466.42 512,513.98 514.64,512.66 515.96,274.86 545.03,471.71 560.88,461.14 "/>
   </g>
  </g>
 </g>
</svg>
