<svg xmlns="http://www.w3.org/2000/svg" viewBox="0 0 1024 1024" width="1024" height="1024">
<g fill="#FFFFFF" fill-rule="evenodd">
<path d="M 553 562 L 576 582 L 584 587 L 601 601 L 614 610 L 619 615 L 628 621 L 655 643 L 666 650 L 637 607 L 631 600 L 613 573 L 590 542 L 587 543 L 581 543 L 588 553 L 590 558 L 598 569 L 599 572 L 613 592 L 612 594 L 595 583 L 588 580 L 586 578 L 573 572 L 571 570 L 561 565 L 559 565 Z"/>
<path d="M 612 594 L 613 593 L 614 594 L 613 595 Z"/>
<path d="M 466 563 L 463 563 L 453 568 L 451 570 L 440 575 L 438 577 L 431 580 L 420 588 L 417 589 L 414 592 L 411 593 L 410 592 L 414 588 L 442 544 L 442 543 L 439 542 L 432 542 L 421 559 L 395 594 L 389 604 L 386 607 L 385 610 L 379 617 L 356 651 L 372 640 L 382 631 L 396 621 L 401 616 L 419 603 L 434 590 L 439 587 L 456 573 L 464 565 L 465 565 Z"/>
<path d="M 513 500 L 511 671 L 509 669 L 507 646 L 488 534 L 476 542 L 511 786 L 547 537 Z"/>
<path d="M 518 499 L 711 499 L 552 521 L 554 526 L 563 533 L 797 498 L 558 462 Z"/>
<path d="M 505 499 L 479 497 L 316 496 L 469 473 L 460 462 L 223 498 L 466 536 Z"/>
<path d="M 667 343 L 634 368 L 597 398 L 593 400 L 579 412 L 570 418 L 557 430 L 560 430 L 586 417 L 588 415 L 595 412 L 611 401 L 612 403 L 606 411 L 605 414 L 602 417 L 598 425 L 594 430 L 593 433 L 582 450 L 582 451 L 590 452 L 594 448 L 596 444 L 615 419 L 619 412 L 622 409 L 635 389 L 652 366 Z"/>
<path d="M 611 401 L 612 400 L 613 401 L 612 402 Z"/>
<path d="M 354 342 L 365 359 L 368 362 L 372 369 L 375 372 L 379 379 L 382 382 L 386 389 L 389 392 L 393 399 L 399 406 L 412 426 L 415 429 L 431 452 L 440 451 L 425 427 L 424 424 L 418 416 L 417 413 L 414 410 L 411 404 L 407 400 L 408 399 L 411 400 L 414 403 L 430 412 L 432 414 L 445 420 L 447 422 L 451 423 L 459 428 L 465 429 L 443 410 L 438 407 L 434 403 L 421 394 L 399 376 L 391 371 L 386 366 L 382 364 L 378 360 Z"/>
<path d="M 511 203 L 475 460 L 510 496 L 512 495 L 513 315 L 535 464 L 547 456 Z"/>
</g></svg>